<svg fill="none" xmlns="http://www.w3.org/2000/svg" viewBox="0 0 48 48">
  <path fill-rule="evenodd" clip-rule="evenodd"
    d="m4.4 13.5 3.3-3.2L10.9 7l6.2 6.2 6.5 6.5.4.4-3.3 3.3-3.2 3.2 1.6 1.7 1.6 1.6V43l-8.1-8.2-8.2-8.2 3.3-3.2 3.2-3.3-3.2-3.3zM24 20.1l6.5-6.6L37.1 7l3.2 3.3 3.3 3.2-3.2 3.3-3.3 3.3 3.3 3.3 3.2 3.2-8.1 8.2-8.2 8.2V29.9l1.6-1.6 1.6-1.7-3.2-3.2z"
    fill="currentColor" />
  <style>
    path {
      fill: black;
    }

    @media (prefers-color-scheme: dark) {
      path {
        fill: white;
      }
    }
  </style>
</svg>